<svg aria-hidden="true" style="position: absolute; width: 0; height: 0; overflow: hidden;" version="1.1" xmlns="http://www.w3.org/2000/svg" xmlns:xlink="http://www.w3.org/1999/xlink">
<defs>
<symbol id="icon-arrow" viewBox="0 0 38 32">
<path fill="#fff" style="fill: var(--color1, #fff)" d="M0 16c0-0.606 0.253-1.187 0.703-1.616s1.060-0.669 1.697-0.669h27.803l-10.304-9.809c-0.451-0.429-0.704-1.011-0.704-1.618s0.253-1.189 0.704-1.618c0.451-0.429 1.062-0.67 1.699-0.67s1.248 0.241 1.699 0.67l14.398 13.712c0.223 0.212 0.401 0.464 0.522 0.742s0.183 0.575 0.183 0.876-0.062 0.598-0.183 0.876c-0.121 0.278-0.298 0.53-0.522 0.742l-14.398 13.712c-0.451 0.429-1.062 0.67-1.699 0.67s-1.248-0.241-1.699-0.67c-0.451-0.429-0.704-1.011-0.704-1.618s0.253-1.189 0.704-1.618l10.304-9.808h-27.803c-0.636 0-1.247-0.241-1.697-0.669s-0.703-1.010-0.703-1.616z"></path>
</symbol>
<symbol id="icon-selector" viewBox="0 0 56 32">
<path fill="#737373" style="fill: var(--color2, #737373)" d="M7.969-0.002l20 20 20-20 8 4-28 28-28-28 8-4z"></path>
</symbol>
<symbol id="icon-people" viewBox="0 0 38 32">
<path fill="#23a6f0" style="fill: var(--color3, #23a6f0)" d="M36.733 30.933c0 0 2.467 0 2.467-2.489s-2.467-9.956-12.333-9.956c-9.867 0-12.333 7.467-12.333 9.956s2.467 2.489 2.467 2.489h19.733zM17.054 28.444h19.625c0.012-0.001 0.023-0.003 0.035-0.005l0.020-0.005c-0.005-0.657-0.412-2.564-1.875-4.281-1.362-1.61-3.754-3.176-7.992-3.176-4.235 0-6.628 1.568-7.992 3.176-1.463 1.717-1.872 3.626-1.875 4.281 0.018 0.004 0.036 0.007 0.054 0.010zM26.867 13.511c1.308 0 2.563-0.524 3.488-1.458s1.445-2.2 1.445-3.52c0-1.32-0.52-2.586-1.445-3.52s-2.18-1.458-3.488-1.458c-1.308 0-2.563 0.524-3.488 1.458s-1.445 2.2-1.445 3.52c0 1.32 0.52 2.586 1.445 3.52s2.18 1.458 3.488 1.458zM34.267 8.533c0 0.981-0.191 1.951-0.563 2.857s-0.917 1.729-1.604 2.422c-0.687 0.693-1.503 1.243-2.401 1.619s-1.86 0.568-2.832 0.568c-0.972 0-1.934-0.193-2.832-0.568s-1.714-0.925-2.401-1.619c-0.687-0.693-1.232-1.516-1.604-2.422s-0.563-1.877-0.563-2.857c0-1.98 0.78-3.879 2.168-5.28s3.27-2.187 5.232-2.187c1.963 0 3.845 0.787 5.233 2.187s2.167 3.299 2.167 5.28zM16.842 19.186c-0.987-0.314-2.004-0.52-3.034-0.615-0.579-0.056-1.16-0.083-1.741-0.082-9.867 0-12.333 7.467-12.333 9.956 0 1.66 0.821 2.489 2.467 2.489h10.399c-0.366-0.777-0.548-1.629-0.533-2.489 0-2.514 0.93-5.082 2.689-7.228 0.599-0.732 1.297-1.416 2.087-2.031zM11.869 20.978c-4.114 0.050-6.45 1.593-7.795 3.176-1.473 1.727-1.875 3.641-1.875 4.291h7.4c0-2.601 0.797-5.192 2.269-7.467zM3.433 9.778c0-1.98 0.78-3.879 2.167-5.28s3.27-2.187 5.233-2.187c1.963 0 3.845 0.787 5.233 2.187s2.167 3.299 2.167 5.28-0.78 3.879-2.167 5.28c-1.388 1.4-3.27 2.187-5.233 2.187s-3.845-0.787-5.233-2.187c-1.388-1.4-2.167-3.299-2.167-5.28zM10.833 4.8c-1.308 0-2.563 0.524-3.488 1.458s-1.445 2.2-1.445 3.52c0 1.32 0.52 2.586 1.445 3.52s2.18 1.458 3.488 1.458c1.308 0 2.563-0.524 3.488-1.458s1.445-2.2 1.445-3.52c0-1.32-0.52-2.586-1.445-3.52s-2.18-1.458-3.488-1.458z"></path>
</symbol>
</defs>
</svg>
